<svg width="892" height="892" viewBox="0 0 892 892" fill="none" xmlns="http://www.w3.org/2000/svg">
<g clip-path="url(#clip0)">
<rect x="526.508" y="909.001" width="664" height="666" rx="332" transform="rotate(-145 526.508 909.001)" fill="#014052"/>
<g clip-path="url(#clip1)">
<path d="M261.478 709.033L304.025 669.311C305.458 667.056 317.183 657.007 319.517 655.33C323.266 652.636 313.546 646.437 308.903 643.983C305.864 642.377 296.805 631.038 294.22 628.519C291.708 626.072 276.696 610.675 271.239 598.204C284.609 613.715 312.867 640.789 315.092 641.474C317.029 642.071 335.449 622.443 338.801 619.439C344.449 614.376 388.582 596.541 391.131 598.155C399.46 603.428 450.408 564.253 454.374 551.399C459.524 534.705 458.367 514.36 456.878 518.595C455.447 522.66 431.289 570.45 409.623 572.626C404.997 573.926 385.957 584.316 389.22 579.795C390.089 578.59 397.161 573.686 406.812 569.807C450.283 552.334 471.26 476.546 461.858 472.841C459.36 471.855 460.411 459.279 451.481 443.06C438.326 419.167 432.839 413.751 430.212 411.827C422.646 406.285 379.677 414.461 375.717 423.998C373.544 429.232 367.207 432.317 366.597 434.534C365.663 437.93 356.356 451.96 347.727 462.935C346.475 464.528 346.216 466.506 347.215 467.297C349.575 469.166 384.461 455.26 386.839 451.964C387.848 450.566 378.478 437.387 379.268 436.87C381.196 435.609 390.669 446.892 393.158 445.927C408.624 439.936 431.82 466.317 426.264 474.716C423.606 478.734 426.786 485.319 428.28 487.602C430.945 491.676 429.754 494.548 426.13 492.851C422.917 491.346 400.475 506.394 402.899 515.656C403.982 519.798 409.033 525.693 407.069 527.437C404.55 529.674 403.602 529.364 401.484 525.56C399.59 522.158 389.373 509.574 390.841 518.252C391.332 521.159 370.392 526.8 367.898 528.406C364.807 530.397 356.396 531.885 358.287 530.1C358.674 529.735 375.886 522.212 395.238 507.097C406.592 498.229 409.069 495.286 413.677 492.483C419.023 489.232 423.606 466.253 418.111 461.672C416.792 460.572 412.703 456.893 408.179 454.282L399.953 449.539L386.583 458.987C379.245 464.186 366.683 471.514 358.616 475.281C342.598 482.76 328.154 486.284 311.601 496.684C298.22 505.093 286.793 511.329 286.281 510.546C285.77 509.764 293.774 504.802 295.827 504.114C298.871 503.093 298.124 502.393 295.855 498.948C292.819 494.339 269.213 509.685 269.583 516.139C268.404 516.91 256.465 564.337 258.136 568.476C259.746 572.464 258.802 570.524 261.371 580.763C261.085 580.461 249.435 575.034 246.984 576.891C241.796 580.822 246.17 592.236 249.175 597.338C251.623 601.495 259.725 607.02 253.823 605.545C251.207 604.892 237.572 585.252 238.757 582.359C240.149 578.959 207.005 605.863 205.573 609.526C203.24 615.491 202.551 616.101 198.953 615.349C195.761 614.681 157.285 636.792 157.285 636.792L261.476 709.033L261.478 709.033ZM298.099 497.613C298.399 497.807 299.164 497.818 300.512 497.487C312.761 494.476 314.341 493.821 309.524 493.847C307.016 493.861 307.811 492.788 312.507 489.69C316.009 487.38 321.786 484.735 325.258 483.512C355.302 472.93 357.346 466.675 321.003 482.639C317.002 484.396 295.998 496.257 298.099 497.613L298.099 497.613ZM596.425 584.049C602.412 586.468 629.937 597.869 635.173 598.637C638.048 599.059 675.001 597.569 694.548 610.684C697.373 612.579 688.092 620.715 690.043 623.91C692.714 628.281 702.637 634.973 708.386 636.744L776.172 539.643C777.078 538.335 766.95 532.361 767.664 532.71C770.964 534.322 752.108 521.697 749.217 522.442C743.603 523.889 739.26 534.448 737.032 532.687C734.994 531.075 707.773 493.364 703.921 488.804C705.134 487.84 680.281 463.792 656.426 443.564C641.802 434.604 551.608 383.352 546.141 388.604C537.033 396.878 535.897 395.039 542.856 400.279C546.16 402.767 557.334 409.681 562.724 413.392C573.671 420.929 592.703 435.417 599.493 438.445C601.929 439.531 623.849 456.359 618.606 456.789C616.587 456.955 584.663 435.219 571.66 425.494C556.311 414.015 525.357 393.83 517.013 387.634C505.99 379.448 499.586 377.679 496.412 379.311C493.455 380.831 489.966 381.015 487.197 385.788C486.172 390.208 489.398 394.118 490.567 394.917C519.338 414.574 574.488 455.162 579.359 458.873C583.544 462.063 602.418 475.776 601.466 475.944C600.514 476.112 570.252 455.781 561.693 450.182C537.95 434.65 505.272 409.953 499.221 406.116C495.027 404.551 476.662 390.042 471.199 397.058C466.505 403.087 466.153 405.116 472.046 411.924C477.716 418.474 482.505 423.836 513.853 447.225C534.374 462.537 587.816 500.999 587.93 501.596C588.508 504.608 547.773 475.609 529.292 462.825C518.182 455.14 478.511 421.872 469.671 417.596C450.1 408.128 456.602 427.025 459.012 431.77C461.43 436.264 468.666 445.369 473.377 449.907C477.321 453.707 509.383 481.569 514.813 486.814C517.582 489.49 547.149 511.737 547.294 512.561C547.44 513.385 573.023 530.881 576.283 532.71C602.718 547.543 581.004 537.352 572.463 534.331C562.045 530.645 544.034 522.845 534.694 530.518C528.906 541.33 528.675 540.764 537.212 547.476C540.694 549.993 560.714 563.716 566.891 567.576C575.3 572.831 591.951 580.866 596.425 584.052L596.425 584.049ZM440.239 386.817C441.151 387.406 449.675 390.978 453.267 386.57C457.946 380.827 455.843 359.95 454.507 352.372C453.988 349.431 438.429 300.693 431.684 287.521C426.054 276.526 417.636 244.838 421.819 244.1C425.898 243.381 442.268 273.776 447.06 278.243C451.053 281.966 468.896 305.224 490.222 333.065C497.194 342.168 501.46 341.797 507.673 342.162C516.929 342.706 525.859 339.598 524.239 329.008C523.584 324.726 515.546 311.596 511.322 305.788C504.836 296.87 488.54 266.792 486.539 263.717C484.539 260.641 468.875 243.235 470.901 241.348C473.494 241.436 477.125 241.168 482.358 242.577C487.207 243.883 496.473 235.949 497.885 233.361C499.902 229.665 489.183 219.11 487.629 216.042C486.171 213.164 441.366 179.048 439.443 175.088C437.871 171.852 441.374 140.447 432.293 124.652C439.264 127.64 447.898 181.114 445.187 176.718C443.652 174.229 499.129 220.797 500.369 220.5C503.563 219.734 506.865 193.93 504.1 188.716C501.771 184.325 454.33 162.114 449.269 158.57C446.01 156.287 446.531 155.859 443.239 153.113C439.948 150.366 503.014 187.74 503.252 183.165C503.719 174.126 511.29 157.008 505.356 154.878C504.601 154.608 438.849 131.352 435.739 127.116C431.571 121.44 500.831 153.692 502.099 149.647C503.274 145.9 498.006 143.332 495.988 140.498C494.972 139.072 416.445 71.5612 407.599 74.7171C402.871 76.4045 379.238 71.4606 376.798 69.2206C368.229 69.0317 377.889 60.7664 379.931 52.0306L370.547 41.5694L304.56 136.072C302.676 138.762 305.486 145.947 311.144 148.953C316.258 155.615 353.727 230.722 373.961 237.915C375.7 252.432 401.915 310.602 403.664 317.293C406.037 326.375 431.993 378.565 433.605 380.936C434.813 382.714 437.501 385.046 440.237 386.814L440.239 386.817Z" fill="#299993"/>
</g>
</g>
<rect x="526.508" y="909.001" width="664" height="666" rx="332" transform="rotate(-145 526.508 909.001)" stroke="#299993" stroke-width="25"/>
<defs>
<clipPath id="clip0">
</clipPath>
<clipPath id="clip1">
<rect width="646.649" height="638.05" fill="white" transform="translate(527.059 895.709) rotate(-145)"/>
</clipPath>
</defs>
</svg>
