<?xml version="1.0" encoding="UTF-8"?>
<!DOCTYPE svg  PUBLIC '-//W3C//DTD SVG 1.1//EN'  'http://www.w3.org/Graphics/SVG/1.1/DTD/svg11.dtd'>
<svg enable-background="new 0 0 89.8 44.6" version="1.1" viewBox="0 0 89.8 44.6" xml:space="preserve" xmlns="http://www.w3.org/2000/svg">
<g clip-rule="evenodd" fill-rule="evenodd">
	<path d="m88.4 17.7c0.333 0.466 0.666 1.15 1 2.05 0.267 0.767 0.399 1.217 0.399 1.35 0 0.5-0.149 2.333-0.45 5.5-0.399 3.9-0.783 6.7-1.149 8.4-0.2 0.967-0.8 1.783-1.8 2.45-0.834 0.566-2.217 1.166-4.15 1.8-0.366-0.3-1.017-1.2-1.95-2.7-0.767-1.2-1.333-2.149-1.7-2.85l-0.5-0.851-1.45-1.899-0.45-0.4c-0.634-0.566-1.2-0.883-1.7-0.95-0.467 0.4-1.066 1.717-1.8 3.95-0.733 2.101-1.384 4.417-1.95 6.95l-0.6 2.05-14.75 1.5c0.733-0.434 1.566-0.8 2.5-1.1 0.6-0.767 0.899-3.3 0.899-7.601l-0.1-2.85c0.033-0.434 0.184-1.134 0.45-2.1l-0.049 1.551c0.134 1.366 0.4 3.316 0.801 5.85 0.433 2.934 0.75 4.566 0.949 4.9 0.5-0.033 0.851-0.184 1.051-0.45 0.3-0.733 0.683-1.5 1.149-2.3 0.334-0.601 0.5-0.983 0.5-1.15-0.633-1.633-0.983-2.55-1.05-2.75 1.667 0.533 3 0.8 4 0.8 0.733 0 1.384-0.166 1.95-0.5 0.066 0.167 0.116 0.25 0.149 0.25 0.034 0.067 0.051 0.301 0.051 0.7 0 0.4-0.034 0.717-0.101 0.95 1.334-2.233 2.167-3.783 2.5-4.65 0.601-1.7 2.351-5.333 5.251-10.9 0.601 0.899 1.601 2.899 3 6 0.601 1.333 1.566 2 2.9 2 1.833 0 3-0.867 3.5-2.601 0.666-3.399 1.55-6.733 2.649-10l0.051-0.399zm-19.75 8.3c-0.167-0.033-0.717-0.3-1.65-0.8s-1.5-0.834-1.7-1l-0.35-1.3c1.2-0.433 2.434-0.75 3.7-0.95h4.05l0.1 3.35c0 0.434-0.05 0.767-0.149 1-0.034 0.066-0.167 0.233-0.4 0.5l-3.601-0.8zm-11.25-5.6c0.3 0.434 1.55 2.95 3.75 7.55l-1.601-0.8c-0.267 0-0.483-0.184-0.649-0.551-0.2-0.366-0.301-0.816-0.301-1.35-0.1-0.2-0.333-0.533-0.699-1l-0.55-0.749-2.15-2.35-1.3-1.4c-0.934-0.667-1.767-1.217-2.5-1.65-1-0.6-1.7-1.033-2.101-1.3l0.45-0.05 0.3-0.05c2.033 0 3.767 0.367 5.2 1.1 1.435 0.7 2.151 1.567 2.151 2.6zm-37.75-3.35l-0.55-0.05c0-0.833 0.3-1.533 0.9-2.1 0.567-0.6 1.25-0.9 2.05-0.9l0.1-0.05-0.8 1.7c-0.533 0.633-1.1 1.1-1.7 1.4z" fill="#635B52"/>
	<path d="m88.4 17.7l-0.051 0.4c-0.833 0.367-1.416 1.117-1.75 2.25 0 0.066-0.199 1.217-0.6 3.45-0.566 3.233-2.2 5.233-4.9 6-0.166-0.267-0.35-0.883-0.55-1.85-0.166-0.9-0.25-1.617-0.25-2.15 0-2.366 0.634-4.283 1.9-5.75 1.5-1.767 2.399-3.316 2.7-4.65 0.133 0.067 0.683 0.417 1.649 1.05 1.002 0.633 1.619 1.05 1.852 1.25zm-29.3 14.25l0.051-1.55c-0.267 0.966-0.417 1.666-0.45 2.1-1.2 1.833-2.967 3.134-5.3 3.9-1 0.333-3.017 0.733-6.051 1.199-2.267 0.334-3.8 0.851-4.6 1.551-1.167 0.966-1.517 2.6-1.05 4.899l-1.1-0.2c-1.1-0.166-3.15-0.783-6.15-1.85-2.434-0.833-4.633-1.65-6.6-2.45 2.5-0.866 6.283-1.366 11.35-1.5 3.767-0.1 6.517-1.017 8.25-2.75 0.166-0.133 1.133-0.649 2.899-1.55 1.233-0.634 1.917-1.517 2.051-2.65 0.267-1.933 1.066-3.466 2.399-4.6 1.467-1.2 2.316-2.167 2.55-2.9v-0.1l0.551 0.75c0.366 0.467 0.6 0.8 0.699 1 0 0.533 0.101 0.983 0.301 1.35 0.166 0.367 0.383 0.551 0.649 0.551 0.2 0.6 0.3 1.25 0.3 1.949 1e-3 1.035-0.249 1.984-0.749 2.851zm11.65 8.55c1.5 0 2.783-0.967 3.85-2.9 1.067-1.966 1.601-4.316 1.601-7.05l0.45 0.4c0 0.1-0.167 1.517-0.5 4.25-0.334 2.967-0.517 5.066-0.551 6.3-2.066 0.5-3.883 0.85-5.449 1.05l0.599-2.05zm7.85-6.8c0.034 0.233 0.7 2.283 2 6.149l-0.55 0.25-1.6 0.551c-0.101-3.801-0.217-6.4-0.351-7.801l0.501 0.851zm-3.1-23.3l6.15 2.05c-0.434 0.4-0.45 0.8-0.051 1.2 0.267 0.267 0.851 0.617 1.75 1.05-0.833-0.2-1.466-0.35-1.899-0.45-0.766-0.167-1.35-0.25-1.75-0.25-0.8 0-1.55 0.367-2.25 1.1-0.667 0.733-1.367 1.1-2.101 1.1-0.633 0-1.183-0.184-1.649-0.55-0.601-0.533-1.134-0.983-1.601-1.35-2-1.4-5.449-2.35-10.35-2.85l-1.549-0.05c0.333 0.233 1.366 0.8 3.1 1.7 1.834 0.967 2.983 1.6 3.45 1.9 0.634 0.4 1.083 1.133 1.35 2.2 0.2 0.8 0.25 1.433 0.15 1.9l-0.4-0.8-0.15-0.25c-0.5-1.066-2.267-2.583-5.3-4.55-3-1.833-4.567-2.8-4.7-2.9 1.833 0.267 5.217 0.183 10.149-0.25l7.651 0.05zm-32.2 33.9c0.4-1.2 0.934-2.083 1.601-2.649 0.399-0.334 1.383-0.9 2.949-1.7-1.133 1-1.899 2.517-2.3 4.55l-2.25-0.201zm14.1-23.9c0-1.033-0.717-1.9-2.15-2.6-1.434-0.733-3.167-1.1-5.2-1.1l-0.75-0.25 0.45 0.3-0.45 0.05c0.4 0.267 1.101 0.7 2.101 1.3 0.733 0.433 1.566 0.983 2.5 1.65l1.3 1.4c-1.233-0.667-2.334-1.2-3.3-1.6-0.667-0.267-1.084-0.466-1.25-0.6l-0.15-0.1c-0.033-0.033-0.066-0.05-0.1-0.05l-0.15-0.15-0.8-0.6 1.35 0.25c-3.434-2.433-5.566-3.883-6.399-4.35 5.233 0.667 8.466 1.283 9.699 1.85 0.867 0.4 2.967 1.4 6.301 3l4.25 1.95-3.452-0.35c0.666 0.434 1.434 1.117 2.3 2.05 0.934 0.967 1.533 1.55 1.8 1.75 0.2 0.166 0.767 0.5 1.7 1s1.483 0.767 1.65 0.8c-0.2 3.2-0.817 5.467-1.851 6.8-0.666 0.834-1.467 1.25-2.399 1.25-1.101 0-1.684-0.5-1.75-1.5 0.1-1.467 0.183-2.684 0.25-3.649 0.234-3.967-1.6-6.801-5.5-8.501zm-15.25-2.75c-1.933-2.467-2.95-3.75-3.05-3.85-0.167-0.267-0.267-0.466-0.3-0.6-0.1-0.2-0.15-0.517-0.15-0.95l0.05-1.1c1.033 0.8 1.933 1.767 2.7 2.9 0.467 0.667 1.233 1.8 2.3 3.4 1.033 1.767 1.666 2.966 1.899 3.6 0.2 0.5 0.301 1.117 0.301 1.85 0 0.4-0.017 0.617-0.051 0.65-0.1-0.033-0.183-0.017-0.25 0.05l-0.5 0.5c-0.366 0.7-0.666 1.584-0.899 2.65-0.8 0.866-1.55 1.517-2.25 1.95-0.1-0.101 0.083-1.351 0.55-3.75 0.5-2.633 0.75-4.083 0.75-4.35 0-0.733-0.3-1.633-0.9-2.7l-0.2-0.25zm-25-2.7v4.45l0.1 0.95c0.3-0.167 0.633-0.684 1-1.55 0.467-1.066 0.75-1.667 0.85-1.8l0.55 0.05c-0.133 1.667-0.417 2.9-0.85 3.7-0.466 0.867-1.15 1.3-2.05 1.3l-1.1-0.1-0.05-2.45c0-1 0.167-1.9 0.5-2.7 0.2-0.5 0.55-1.117 1.05-1.85zm-1.1 14.05c-1.933-0.267-3.033-0.366-3.3-0.3-1.367 0.434-2.183 2.116-2.45 5.05l-3.05-1.35c0.4-0.8 0.75-1.55 1.05-2.25 0.567-1.3 0.85-2.55 0.85-3.75l-0.05-1.1c0.833 0.867 1.433 1.434 1.8 1.7 0.5 0.366 1.05 0.55 1.65 0.55 0.467 0 1.3-0.366 2.5-1.1 1.333-0.834 2.184-1.3 2.55-1.4-0.433 1.334-0.95 2.65-1.55 3.95zm9.4 9.6l-1.25-0.45c0.133-1.667 0.2-3.467 0.2-5.4 0-0.533-0.083-1.116-0.25-1.75-0.2-0.667-0.367-0.95-0.5-0.85l2.5-11.7 0.15 14.95c0 0.666-0.066 1.517-0.2 2.55-0.2 1.267-0.417 2.15-0.65 2.65zm26.15 5.8l-1.4 0.1c0.333-2.733 0.5-4.566 0.5-5.5l0.3-0.05c0.033 0.233 0.1 1.066 0.2 2.5 0.1 1.3 0.234 2.283 0.4 2.95z" fill="#898074"/>
	<path d="m88.35 18.1c-1.1 3.267-1.983 6.6-2.649 10-0.5 1.733-1.667 2.601-3.5 2.601-1.334 0-2.3-0.667-2.9-2-1.399-3.101-2.399-5.101-3-6-2.901 5.566-4.651 9.199-5.251 10.899-0.333 0.867-1.166 2.417-2.5 4.65 0.066-0.233 0.101-0.55 0.101-0.95 0-0.399-0.017-0.633-0.051-0.7-0.033 0-0.083-0.083-0.149-0.25-0.566 0.334-1.217 0.5-1.95 0.5-1 0-2.333-0.267-4-0.8 0.066 0.2 0.417 1.117 1.05 2.75 0 0.167-0.166 0.55-0.5 1.15-0.467 0.8-0.85 1.566-1.149 2.3-0.2 0.267-0.551 0.417-1.051 0.45-0.199-0.334-0.517-1.967-0.949-4.9-0.4-2.533-0.667-4.483-0.801-5.85 0.5-0.867 0.75-1.816 0.75-2.851 0-0.699-0.1-1.35-0.3-1.949l1.601 0.8c-2.2-4.601-3.45-7.117-3.75-7.55 3.899 1.7 5.733 4.534 5.5 8.5-0.067 0.966-0.15 2.183-0.25 3.649 0.066 1 0.649 1.5 1.75 1.5 0.933 0 1.733-0.416 2.399-1.25 1.033-1.333 1.65-3.6 1.851-6.8l3.6 0.8c0.233-0.267 0.366-0.434 0.4-0.5 0.1-0.233 0.149-0.566 0.149-1l-0.1-3.35h-4.05c-1.267 0.2-2.5 0.517-3.7 0.95l0.35 1.3c-0.267-0.2-0.866-0.783-1.8-1.75-0.866-0.934-1.634-1.617-2.3-2.05l3.45 0.35c1.267 0.2 2.183 0.05 2.75-0.45 0.333-0.267 0.616-0.667 0.85-1.2 0.1-0.467 0.05-1.1-0.15-1.9-0.267-1.067-0.716-1.8-1.35-2.2-0.467-0.3-1.616-0.933-3.45-1.9-1.733-0.9-2.767-1.467-3.1-1.7l1.55 0.05c4.9 0.5 8.35 1.45 10.35 2.85 0.467 0.367 1 0.817 1.601 1.35 0.467 0.367 1.017 0.55 1.649 0.55 0.733 0 1.434-0.367 2.101-1.1 0.7-0.733 1.45-1.1 2.25-1.1 0.399 0 0.983 0.083 1.75 0.25 0.434 0.1 1.066 0.25 1.899 0.45l1.551 0.7c-0.301 1.333-1.2 2.883-2.7 4.65-1.267 1.467-1.9 3.384-1.9 5.75 0 0.533 0.084 1.25 0.25 2.15 0.2 0.967 0.384 1.583 0.55 1.85 2.7-0.767 4.334-2.767 4.9-6 0.4-2.233 0.6-3.383 0.6-3.45 0.332-1.132 0.915-1.882 1.748-2.249zm-32.95 25.95l-3.8 0.35c-0.166-0.667-0.3-1.65-0.399-2.95-0.101-1.434-0.167-2.267-0.2-2.5l-0.301 0.05c-1.167 0.333-2.117 0.65-2.851 0.95-1.566 0.8-2.55 1.366-2.949 1.7-0.667 0.567-1.2 1.45-1.6 2.65l-1.6-0.25c-0.467-2.3-0.117-3.934 1.05-4.899 0.8-0.7 2.333-1.217 4.6-1.551 3.034-0.466 5.051-0.866 6.051-1.199 2.333-0.767 4.1-2.067 5.3-3.9l0.1 2.85c0 4.301-0.3 6.834-0.899 7.601-0.935 0.298-1.768 0.664-2.502 1.098zm20.8-13.5c0 2.733-0.533 5.084-1.601 7.05-1.066 1.934-2.35 2.9-3.85 2.9 0.566-2.533 1.217-4.85 1.95-6.95 0.733-2.233 1.333-3.55 1.8-3.95 0.501 0.067 1.067 0.383 1.701 0.95zm5.05 9.1l-0.65 0.2c-1.3-3.866-1.966-5.916-2-6.149 0.367 0.7 0.934 1.649 1.7 2.85 0.934 1.5 1.584 2.4 1.95 2.7l-1 0.399zm-62.15-22.65c-0.1 0.133-0.383 0.733-0.85 1.8-0.367 0.867-0.7 1.383-1 1.55l-0.1-0.95v-4.5l0.95-0.9c1.233-0.733 3.417-1.417 6.55-2.05-0.566 0.533-1.15 1.033-1.75 1.5-0.5 0.333-0.783 0.517-0.85 0.55-0.8 0-1.483 0.3-2.05 0.9-0.6 0.567-0.9 1.267-0.9 2.1zm-8.8 16.75c0.267-2.934 1.083-4.616 2.45-5.05 0.267-0.066 1.367 0.033 3.3 0.3 0.3 1.167-0.283 3.2-1.75 6.1-1.3-0.4-2.633-0.85-4-1.35zm13.9 4.4l-2.1-0.801c-0.167-2.899 0.35-5.3 1.55-7.199 0.133-0.101 0.3 0.183 0.5 0.85 0.167 0.634 0.25 1.217 0.25 1.75 0 1.934-0.067 3.733-0.2 5.4z" fill="#7C7367"/>
	<path d="m80.6 39.85l0.65-0.199-1.2 0.449 0.55-0.25zm-35.05-22.5l-1.85 0.1c-1.067-1.6-1.833-2.733-2.3-3.4-0.767-1.133-1.667-2.1-2.7-2.9l-0.05 1.1c0 0.433 0.05 0.75 0.15 0.95 0.034 0.133 0.133 0.333 0.3 0.6l-0.6-0.5 2 4.3c-2.233 0-4.283 0.05-6.15 0.15-1.467 0.067-2.367 0.1-2.7 0.1-1.2 0-2.55-0.233-4.05-0.7-3.133-1-4.717-1.5-4.75-1.5l1.2 0.85c0.067 0.033 0.317 0.15 0.75 0.35-1.533-0.6-2.683-1-3.45-1.2l0.8-1.7-0.1 0.05c0.067-0.033 0.35-0.217 0.85-0.55 0.6-0.467 1.184-0.967 1.75-1.5-3.133 0.633-5.316 1.316-6.55 2.05l-0.95 0.9c-1.233 0.067-2.583-0.333-4.05-1.2-1.267-0.9-1.95-1.383-2.05-1.45 5.633 0 10.333-0.317 14.1-0.95-1.333-0.233-2.333-0.35-3-0.35-3.167 0.367-5.45 0.55-6.85 0.55-2.4 0.033-4.367-0.8-5.9-2.5 3-1.967 6.333-3.833 10-5.6 4.733-2.267 8.25-3.4 10.55-3.4 3.2 0 9.316 0.883 18.35 2.65 9.134 1.8 14.75 3.233 16.851 4.3l8.549 2.85 1.8 0.6-7.65-0.05 5.85-0.55c-1.066-0.233-3.766-0.5-8.1-0.8-4.7-0.333-8.65-0.5-11.85-0.5-0.767 0-1.55 0.15-2.35 0.45l0.25 0.3c1.1 0.4 1.85 0.633 2.25 0.7 0.399 0.1 1.666 0.316 3.8 0.65 0.133 0.1 1.7 1.066 4.7 2.9 3.033 1.967 4.8 3.483 5.3 4.55-4.2-1.533-7.767-2.8-10.7-3.8-5.533-1.933-9.634-3.083-12.3-3.45l-1.15 0.15 0.45 0.15c1.167 0.5 2.983 1.316 5.45 2.45 3.133 1.333 7.767 3.034 13.899 5.1l-2.949 0.15c-3.334-1.6-5.434-2.6-6.301-3-1.233-0.566-4.466-1.183-9.699-1.85-0.367-0.133-0.817-0.184-1.351-0.15-0.466 0.067-0.75 0.1-0.85 0.1l-0.05 0.75c0 0.2 0.283 0.583 0.85 1.15 0.734 0.7 1.584 1.217 2.551 1.55zm3.75 0.7h0.15l0.8 0.6c-0.333-0.233-0.65-0.433-0.95-0.6zm-0.5-13.45l-1 0.05c0.066 0.1 0.2 0.317 0.4 0.65 0.366 0.3 1.033 0.45 2 0.45 1.366 0 3.467-0.267 6.3-0.8-4.467-0.233-7.033-0.35-7.7-0.35zm-6.5 13.35l-0.15-0.3 0.2 0.25-0.05 0.05zm-14.2 0.15c1.6 0.533 3.017 0.883 4.25 1.05l-1.45 0.1c-1-0.433-1.933-0.817-2.8-1.15zm-3.9 20.05l1.25 0.449 0.45 0.2c-0.7-0.267-1.95-0.7-3.75-1.3-1.733-0.6-3.05-1.05-3.95-1.35l3.9 1.199 2.1 0.802zm25.55-21.4l-0.45-0.3 0.75 0.25-0.3 0.05zm-8.05 27.3l1.6 0.25 2.25 0.2 0.95 0.05c-2.066 0-4.033-0.233-5.9-0.7l1.1 0.2zm8.5 0.45l1.399-0.1 3.801-0.35c-1.567 0.233-3.3 0.384-5.2 0.45zm-22.7-35.9l-0.65 0.95c0.733 0.367 1.95 0.383 3.65 0.05l-3-1zm-4.7-3c-0.8-0.5-1.466-0.517-2-0.05l0.25 0.05h1.75zm9.1 0.2c2.1 0 3.733-0.167 4.9-0.5l-0.3-1c-3.8-0.2-6.283 0.017-7.45 0.65l0.15 0.25c0.1 0.1 0.267 0.233 0.5 0.4l2.2 0.2z" fill="#B3AA9E"/>
	<path d="m67.85 18.3l-0.05 0.9h-2.4c-0.434-0.067-0.9-0.184-1.4-0.35l-0.65-0.2c-6.133-2.066-10.767-3.767-13.899-5.1-2.467-1.133-4.283-1.95-5.45-2.45l-0.45-0.15 1.15-0.15c2.666 0.367 6.767 1.517 12.3 3.45 2.934 1 6.5 2.267 10.7 3.8l0.149 0.25zm0-7.95c-4.933 0.433-8.316 0.517-10.149 0.25-2.134-0.333-3.4-0.55-3.8-0.65-0.4-0.067-1.15-0.3-2.25-0.7l-0.25-0.3c0.8-0.3 1.583-0.45 2.35-0.45 3.2 0 7.15 0.167 11.85 0.5 4.334 0.3 7.034 0.567 8.101 0.8l-5.852 0.55zm-19.05-5.75c0.667 0 3.233 0.117 7.7 0.35-2.833 0.533-4.934 0.8-6.3 0.8-0.967 0-1.634-0.15-2-0.45-0.2-0.333-0.334-0.55-0.4-0.65l1-0.05zm0.5 13.45c-1.066-0.7-1.717-0.95-1.95-0.75-0.199 0.167-0.366 0.267-0.5 0.3-0.166 0-0.316-0.033-0.449-0.1l-0.851-0.15c-0.967-0.333-1.816-0.85-2.55-1.55-0.567-0.566-0.85-0.95-0.85-1.15l0.05-0.75c0.1 0 0.383-0.033 0.85-0.1 0.534-0.033 0.983 0.017 1.351 0.15 0.833 0.466 2.966 1.917 6.399 4.35l-1.35-0.25h-0.15zm-5.1 8.7c0.2-0.2 0.399-0.583 0.6-1.15 0.167-0.533 0.267-1.033 0.3-1.5l0.5-0.5c0.634 2.567 0.567 4.667-0.199 6.301-0.767 1.666-2.101 2.5-4 2.5-0.367 0-0.633-0.017-0.8-0.051-0.167-0.066-0.3-0.1-0.4-0.1l-0.3-1.15c0.1-0.566 0.3-0.983 0.6-1.25 0.233-0.199 0.717-0.583 1.45-1.149 0.699-0.434 1.449-1.085 2.249-1.951zm-5.1-12.95c0.1 0.1 1.117 1.383 3.05 3.85l0.15 0.3c0.133 0.466 0.184 0.9 0.15 1.3-2.567 0.433-4.333 0.667-5.3 0.7l-1.85-0.1c-0.667 1.033-1.617 2.617-2.85 4.75-1.733 2.934-2.6 4.567-2.6 4.9 0 0.667-0.117 0.9-0.35 0.7l-0.45-0.15c-0.3-0.566-0.6-1.184-0.9-1.85-0.6-1.334-0.9-2.733-0.9-4.2 0-1.667 0.367-2.8 1.1-3.4 0.433-0.333 1.283-0.783 2.55-1.35l1.45-0.1c-1.233-0.167-2.65-0.517-4.25-1.05-0.367-0.133-0.733-0.267-1.1-0.4-0.967-0.4-1.7-0.684-2.2-0.85-0.433-0.2-0.683-0.317-0.75-0.35l-1.2-0.85c0.033 0 1.617 0.5 4.75 1.5 1.5 0.467 2.85 0.7 4.05 0.7 0.333 0 1.233-0.033 2.7-0.1 1.867-0.1 3.917-0.15 6.15-0.15l-2-4.3 0.6 0.5zm-32.2-2.65l-0.05-0.05 2.55-2.1c1.533 1.7 3.5 2.533 5.9 2.5 1.4 0 3.684-0.183 6.85-0.55 0.667 0 1.667 0.117 3 0.35-3.767 0.633-8.467 0.95-14.1 0.95-0.167 0-0.85-0.167-2.05-0.5-1.167-0.3-1.867-0.5-2.1-0.6zm-4.05 18.8c-2.9-1.101-3.583-3.9-2.05-8.4 0.567-1.667 1.917-4.367 4.05-8.1l0.3-0.4c1.267 0.1 2.267 0.4 3 0.9 0.4 0.267 0.7 0.55 0.9 0.85-0.267 0.833-0.816 1.883-1.65 3.15-0.967 1.467-1.767 2.95-2.4 4.45-0.2 0.467-0.567 1.734-1.1 3.8s-0.883 3.317-1.05 3.75zm29.05-24.15l-2.2-0.2c-0.233-0.167-0.4-0.3-0.5-0.4l-0.15-0.25c1.167-0.633 3.65-0.85 7.45-0.65l0.3 1c-1.167 0.333-2.8 0.5-4.9 0.5zm-9.1-0.2h-1.75l-0.25-0.05c0.533-0.467 1.2-0.45 2 0.05zm4.7 3l3 1c-1.7 0.333-2.917 0.316-3.65-0.05l0.65-0.95zm-18.95 11.9c-0.033-0.033-0.066-0.2-0.1-0.5 0.333-0.433 0.55-0.9 0.65-1.4 0.2-0.434 0.883-0.983 2.05-1.65l-0.05 0.95-0.15 0.8c-0.167 1.333-0.7 2-1.6 2-0.433 0-0.7-0.067-0.8-0.2zm31 2.55c-0.2 0.2-0.433 0.3-0.7 0.3s-0.5-0.1-0.7-0.3-0.3-0.45-0.3-0.75 0.1-0.55 0.3-0.75 0.434-0.3 0.7-0.3 0.5 0.1 0.7 0.3 0.3 0.45 0.3 0.75-0.1 0.55-0.3 0.75zm-27.3 0.95l-0.8 0.1c-0.867-0.067-1.583-0.2-2.15-0.4l0.95-1c0.833-0.5 1.583-0.867 2.25-1.1 0 1.5-0.083 2.3-0.25 2.4z" fill="#D2C8BA"/>
	<path d="m78.1 32.85c0.134 1.4 0.25 4 0.351 7.801l-2.851 0.849c0.034-1.233 0.217-3.333 0.551-6.3 0.333-2.733 0.5-4.15 0.5-4.25l1.449 1.9zm-13.45-12.1l-4.25-1.95 2.949-0.15 0.65 0.2c0.5 0.167 0.967 0.283 1.4 0.35h2.401l0.05-0.9 0.4 0.8c-0.233 0.533-0.517 0.933-0.85 1.2-0.567 0.5-1.483 0.65-2.75 0.45zm-15.35-2.7c0.3 0.167 0.617 0.367 0.95 0.6l0.15 0.15c0.033 0 0.066 0.017 0.1 0.05l0.15 0.1c0.166 0.133 0.583 0.333 1.25 0.6 0.966 0.4 2.066 0.934 3.3 1.6l2.149 2.35v0.1c-0.233 0.733-1.083 1.7-2.55 2.9-1.333 1.134-2.133 2.667-2.399 4.6-0.134 1.134-0.817 2.017-2.051 2.65-1.767 0.9-2.733 1.417-2.899 1.55-1.733 1.733-4.483 2.65-8.25 2.75-5.067 0.134-8.85 0.634-11.35 1.5l-1.35-0.5c-0.033-0.033-0.233-0.116-0.6-0.25l-0.45-0.2c0.233-0.5 0.45-1.383 0.65-2.649 0.133-1.033 0.2-1.884 0.2-2.55l-0.15-14.95-2.5 11.7c-1.2 1.899-1.717 4.3-1.55 7.199l-3.9-1.199-3.9-1.051c1.467-2.899 2.05-4.933 1.75-6.1 0.6-1.3 1.117-2.616 1.55-3.95-0.367 0.101-1.217 0.566-2.55 1.4-1.2 0.733-2.033 1.1-2.5 1.1-0.6 0-1.15-0.184-1.65-0.55-0.367-0.267-0.967-0.833-1.8-1.7l0.05 1.1c0 1.199-0.283 2.449-0.85 3.75-0.3 0.7-0.65 1.45-1.05 2.25l-4.4-2.45c0.167-0.434 0.517-1.684 1.05-3.75s0.9-3.333 1.1-3.8c0.633-1.5 1.433-2.983 2.4-4.45 0.833-1.267 1.383-2.317 1.65-3.15-0.2-0.3-0.5-0.583-0.9-0.85-0.733-0.5-1.733-0.8-3-0.9l0.35-0.45 1.35-1.45h0.05c0.233 0.1 0.934 0.3 2.1 0.6 1.2 0.333 1.883 0.5 2.05 0.5 0.1 0.067 0.784 0.55 2.05 1.45 1.467 0.867 2.816 1.267 4.05 1.2v0.05c-0.5 0.733-0.85 1.35-1.05 1.85-0.333 0.8-0.5 1.7-0.5 2.7l0.05 2.45 1.1 0.1c0.9 0 1.583-0.433 2.05-1.3 0.434-0.8 0.717-2.033 0.85-3.7 0.6-0.3 1.167-0.767 1.7-1.4 0.767 0.2 1.917 0.6 3.45 1.2 0.5 0.167 1.233 0.45 2.2 0.85 0.367 0.133 0.733 0.267 1.1 0.4 0.867 0.333 1.8 0.717 2.8 1.15-1.267 0.567-2.117 1.017-2.55 1.35-0.733 0.6-1.1 1.733-1.1 3.4 0 1.467 0.3 2.866 0.9 4.2 0.3 0.666 0.6 1.283 0.9 1.85l0.45 0.15c0.233 0.2 0.35-0.033 0.35-0.7 0-0.333 0.867-1.967 2.6-4.9 1.233-2.133 2.183-3.716 2.85-4.75l1.85 0.1c0.967-0.034 2.733-0.267 5.3-0.7 0.033-0.4-0.017-0.833-0.15-1.3l0.05-0.05c0.6 1.067 0.9 1.967 0.9 2.7 0 0.267-0.25 1.717-0.75 4.35-0.467 2.399-0.65 3.649-0.55 3.75-0.733 0.566-1.217 0.95-1.45 1.149-0.3 0.267-0.5 0.684-0.6 1.25l0.3 1.15c0.1 0 0.233 0.033 0.4 0.1 0.167 0.034 0.433 0.051 0.8 0.051 1.9 0 3.234-0.834 4-2.5 0.767-1.634 0.833-3.733 0.199-6.301 0.067-0.066 0.15-0.083 0.25-0.05 0.034-0.033 0.051-0.25 0.051-0.65 0-0.733-0.101-1.35-0.301-1.85-0.233-0.633-0.866-1.833-1.899-3.6l1.85-0.1 0.85 0.151c0.133 0.067 0.283 0.1 0.449 0.1 0.134-0.033 0.301-0.133 0.5-0.3 0.234-0.2 0.884 0.05 1.951 0.75zm1.4 20.95c0 0.934-0.167 2.767-0.5 5.5-1.367 0.1-2.601 0.116-3.7 0.05l-0.95-0.05c0.4-2.033 1.167-3.55 2.3-4.55 0.733-0.3 1.683-0.617 2.85-0.95zm-5.6-14.9c-0.033 0.467-0.133 0.967-0.3 1.5-0.2 0.567-0.399 0.95-0.6 1.15 0.234-1.066 0.533-1.95 0.9-2.65zm-5.55-1.05c0.2-0.2 0.3-0.45 0.3-0.75s-0.1-0.55-0.3-0.75-0.433-0.3-0.7-0.3-0.5 0.1-0.7 0.3-0.3 0.45-0.3 0.75 0.1 0.55 0.3 0.75 0.434 0.3 0.7 0.3 0.5-0.1 0.7-0.3zm-31-2.55c0.1 0.133 0.367 0.2 0.8 0.2 0.9 0 1.433-0.667 1.6-2l0.15-0.8 0.05-0.95c-1.167 0.667-1.85 1.217-2.05 1.65-0.1 0.5-0.317 0.967-0.65 1.4 0.033 0.3 0.067 0.467 0.1 0.5zm3.7 3.5c0.167-0.1 0.25-0.9 0.25-2.4-0.667 0.233-1.417 0.6-2.25 1.1l-0.95 1c0.567 0.2 1.284 0.333 2.15 0.399l0.8-0.099z" fill="#9B9286"/>
</g>
</svg>
