<svg width="893" height="893" viewBox="0 0 893 893" fill="none" xmlns="http://www.w3.org/2000/svg">
<g clip-path="url(#clip0)">
<rect x="524.388" y="892.299" width="639" height="641" rx="319.5" transform="rotate(-145 524.388 892.299)" fill="#002C39"/>
<g clip-path="url(#clip1)">
<path d="M262.427 706.74L304.975 667.018C306.407 664.763 318.132 654.714 320.466 653.037C324.216 650.343 314.496 644.144 309.852 641.69C306.813 640.084 297.755 628.746 295.169 626.227C292.657 623.779 277.645 608.382 272.189 595.911C285.559 611.423 313.817 638.496 316.042 639.182C317.979 639.778 336.398 620.151 339.75 617.146C345.399 612.084 389.531 594.248 392.08 595.862C400.409 601.136 451.358 561.961 455.324 549.106C460.474 532.413 459.317 512.068 457.827 516.303C456.397 520.367 432.239 568.157 410.572 570.334C405.946 571.633 386.907 582.023 390.169 577.502C391.039 576.297 398.11 571.394 407.762 567.514C451.232 550.042 472.209 474.254 462.808 470.548C460.309 469.562 461.36 456.986 452.431 440.768C439.276 416.875 433.788 411.458 431.162 409.534C423.595 403.993 380.626 412.169 376.667 421.706C374.494 426.94 368.156 430.024 367.546 432.241C366.612 435.638 357.305 449.668 348.676 460.643C347.424 462.235 347.165 464.214 348.164 465.005C350.524 466.874 385.41 452.967 387.788 449.672C388.797 448.274 379.427 435.094 380.217 434.577C382.145 433.316 391.618 444.599 394.108 443.635C409.573 437.643 432.77 464.025 427.214 472.423C424.556 476.441 427.736 483.026 429.23 485.31C431.895 489.383 430.703 492.255 427.08 490.558C423.866 489.054 401.424 504.101 403.848 513.364C404.932 517.505 409.983 523.4 408.019 525.144C405.499 527.382 404.551 527.071 402.434 523.267C400.539 519.865 390.322 507.281 391.79 515.96C392.282 518.867 371.342 524.507 368.848 526.113C365.757 528.105 357.346 529.593 359.237 527.808C359.623 527.443 376.836 519.919 396.187 504.805C407.541 495.937 410.018 492.993 414.627 490.191C419.972 486.94 424.556 463.961 419.061 459.38C417.742 458.28 413.652 454.601 409.129 451.99L400.903 447.246L387.533 456.694C380.195 461.894 367.632 469.221 359.566 472.988C343.548 480.467 329.103 483.991 312.551 494.392C299.17 502.8 287.742 509.036 287.231 508.254C286.719 507.471 294.724 502.51 296.776 501.822C299.82 500.801 299.074 500.101 296.804 496.656C293.768 492.047 270.162 507.393 270.532 513.846C269.354 514.617 257.415 562.045 259.086 566.184C260.696 570.172 259.752 568.232 262.32 578.471C262.034 578.169 250.385 572.742 247.934 574.598C242.745 578.53 247.12 589.944 250.124 595.045C252.573 599.202 260.675 604.728 254.773 603.253C252.156 602.599 238.522 582.959 239.707 580.067C241.098 576.667 207.955 603.57 206.522 607.233C204.189 613.199 203.5 613.808 199.903 613.056C196.711 612.389 158.234 634.499 158.234 634.499L262.426 706.741L262.427 706.74ZM299.049 495.32C299.349 495.514 300.114 495.525 301.461 495.194C313.71 492.183 315.291 491.528 310.473 491.555C307.965 491.569 308.76 490.495 313.456 487.398C316.958 485.088 322.735 482.442 326.207 481.22C356.252 470.638 358.295 464.382 321.952 480.347C317.952 482.104 296.948 493.964 299.049 495.32L299.049 495.32ZM597.374 581.757C603.361 584.176 630.887 595.577 636.122 596.345C638.997 596.766 675.951 595.276 695.498 608.391C698.323 610.287 689.041 618.422 690.993 621.618C693.664 625.988 703.587 632.68 709.335 634.451L777.122 537.35C778.028 536.043 767.899 530.069 768.613 530.417C771.914 532.029 753.057 519.405 750.166 520.15C744.552 521.596 740.209 532.156 737.982 530.394C735.944 528.783 708.722 491.072 704.87 486.512C706.083 485.547 681.23 461.499 657.376 441.272C642.752 432.311 552.557 381.06 547.09 386.311C537.982 394.585 536.846 392.746 543.806 397.987C547.11 400.475 558.283 407.389 563.674 411.1C574.621 418.636 593.653 433.124 600.443 436.152C602.878 437.238 624.798 454.066 619.556 454.497C617.536 454.662 585.613 432.927 572.609 423.202C557.26 411.723 526.307 391.538 517.962 385.341C506.939 377.155 500.535 375.386 497.361 377.018C494.404 378.538 490.915 378.723 488.147 383.496C487.122 387.915 490.347 391.825 491.517 392.624C520.287 412.281 575.438 452.87 580.308 456.581C584.494 459.77 603.367 473.483 602.416 473.651C601.464 473.82 571.201 453.489 562.642 447.89C538.899 432.358 506.221 407.66 500.17 403.823C495.977 402.258 477.611 387.75 472.148 394.766C467.455 400.794 467.103 402.824 472.996 409.631C478.666 416.182 483.454 421.543 514.802 444.932C535.324 460.244 588.766 498.707 588.88 499.303C589.458 502.316 548.722 473.316 530.241 460.532C519.132 452.847 479.46 419.58 470.621 415.304C451.05 405.836 457.552 424.733 459.961 429.477C462.38 433.971 469.616 443.076 474.326 447.614C478.27 451.414 510.333 479.276 515.762 484.522C518.531 487.197 548.098 509.445 548.244 510.269C548.39 511.093 573.973 528.589 577.232 530.418C603.667 545.25 581.953 535.059 573.413 532.038C562.995 528.353 544.984 520.553 535.643 528.225C529.856 539.038 529.624 538.471 538.162 545.184C541.643 547.701 561.664 561.423 567.841 565.283C576.25 570.538 592.9 578.574 597.375 581.759L597.374 581.757ZM441.189 384.524C442.101 385.113 450.624 388.685 454.216 384.277C458.895 378.534 456.792 357.657 455.456 350.08C454.937 347.139 439.379 298.4 432.633 285.228C427.004 274.234 418.586 242.545 422.769 241.808C426.847 241.088 443.218 271.483 448.009 275.951C452.003 279.673 469.846 302.932 491.171 330.773C498.143 339.875 502.409 339.504 508.623 339.87C517.878 340.414 526.809 337.305 525.188 326.715C524.533 322.433 516.496 309.303 512.272 303.495C505.785 294.578 489.489 264.5 487.489 261.424C485.488 258.349 469.824 240.942 471.85 239.056C474.443 239.144 478.074 238.876 483.308 240.285C488.157 241.59 497.422 233.656 498.834 231.069C500.851 227.373 490.132 216.817 488.579 213.749C487.12 210.872 442.316 176.755 440.392 172.795C438.82 169.559 442.324 138.154 433.243 122.359C440.214 125.347 448.847 178.822 446.136 174.426C444.601 171.936 500.078 218.504 501.318 218.207C504.512 217.442 507.815 191.638 505.05 186.424C502.721 182.032 455.279 159.821 450.219 156.277C446.959 153.994 447.481 153.566 444.189 150.82C440.897 148.074 503.964 185.448 504.201 180.873C504.669 171.833 512.239 154.715 506.305 152.586C505.55 152.315 439.798 129.059 436.689 124.824C432.52 119.147 501.78 151.4 503.049 147.354C504.223 143.608 498.955 141.04 496.937 138.205C495.922 136.78 417.394 69.2687 408.548 72.4246C403.821 74.112 380.188 69.1681 377.748 66.9281C369.179 66.7392 378.839 58.4739 380.881 49.7381L371.497 39.2769L305.509 133.779C303.626 136.469 306.436 143.655 312.094 146.66C317.207 153.323 354.677 228.429 374.91 235.623C376.65 250.14 402.865 308.31 404.613 315.001C406.987 324.082 432.943 376.272 434.554 378.643C435.762 380.422 438.45 382.753 441.187 384.522L441.189 384.524Z" fill="#299993"/>
</g>
</g>
<defs>
<clipPath id="clip0">
<rect x="524.388" y="892.299" width="639" height="641" rx="319.5" transform="rotate(-145 524.388 892.299)" fill="white"/>
</clipPath>
<clipPath id="clip1">
<rect width="646.649" height="638.05" fill="white" transform="translate(528.008 893.417) rotate(-145)"/>
</clipPath>
</defs>
</svg>
