<svg width="892" height="892" viewBox="0 0 892 892" fill="none" xmlns="http://www.w3.org/2000/svg">
<g clip-path="url(#clip0)">
<rect x="523.438" y="891.592" width="639" height="641" rx="319.5" transform="rotate(-145 523.438 891.592)" fill="#002C39"/>
<g clip-path="url(#clip1)">
<path d="M261.478 706.033L304.025 666.311C305.458 664.056 317.183 654.007 319.517 652.33C323.266 649.636 313.546 643.437 308.903 640.983C305.863 639.376 296.805 628.038 294.22 625.519C291.708 623.072 276.696 607.675 271.239 595.204C284.609 610.715 312.867 637.789 315.092 638.474C317.029 639.071 335.449 619.443 338.801 616.439C344.449 611.376 388.582 593.541 391.131 595.155C399.46 600.428 450.408 561.253 454.374 548.399C459.524 531.705 458.367 511.36 456.878 515.595C455.447 519.66 431.289 567.45 409.623 569.626C404.997 570.926 385.957 581.316 389.22 576.795C390.089 575.59 397.161 570.686 406.812 566.807C450.283 549.334 471.26 473.546 461.858 469.841C459.359 468.855 460.411 456.279 451.481 440.06C438.326 416.167 432.839 410.751 430.212 408.827C422.646 403.285 379.677 411.461 375.717 420.998C373.544 426.232 367.207 429.317 366.597 431.534C365.663 434.93 356.356 448.96 347.727 459.935C346.475 461.528 346.216 463.506 347.214 464.297C349.575 466.166 384.461 452.26 386.839 448.964C387.848 447.566 378.478 434.387 379.268 433.87C381.196 432.609 390.669 443.892 393.158 442.927C408.624 436.936 431.82 463.317 426.264 471.716C423.606 475.734 426.786 482.319 428.28 484.602C430.945 488.676 429.754 491.548 426.13 489.851C422.917 488.346 400.475 503.393 402.899 512.656C403.982 516.798 409.033 522.693 407.069 524.437C404.55 526.674 403.602 526.364 401.484 522.56C399.59 519.158 389.373 506.574 390.841 515.252C391.332 518.159 370.392 523.8 367.898 525.406C364.807 527.397 356.396 528.885 358.287 527.1C358.674 526.735 375.886 519.212 395.238 504.097C406.592 495.229 409.069 492.286 413.677 489.483C419.023 486.232 423.606 463.253 418.111 458.672C416.792 457.572 412.703 453.893 408.179 451.282L399.953 446.539L386.583 455.987C379.245 461.186 366.683 468.514 358.616 472.281C342.598 479.759 328.154 483.284 311.601 493.684C298.22 502.093 286.793 508.329 286.281 507.546C285.77 506.764 293.774 501.802 295.826 501.114C298.871 500.093 298.124 499.393 295.855 495.948C292.819 491.339 269.213 506.685 269.583 513.139C268.404 513.91 256.465 561.337 258.136 565.476C259.746 569.464 258.802 567.524 261.371 577.763C261.085 577.461 249.435 572.034 246.984 573.891C241.796 577.822 246.17 589.236 249.175 594.338C251.623 598.495 259.725 604.02 253.823 602.545C251.207 601.891 237.572 582.252 238.757 579.359C240.149 575.959 207.005 602.863 205.573 606.525C203.24 612.491 202.551 613.101 198.953 612.349C195.761 611.681 157.285 633.792 157.285 633.792L261.476 706.033L261.478 706.033ZM298.099 494.613C298.399 494.807 299.164 494.818 300.512 494.487C312.76 491.476 314.341 490.821 309.524 490.847C307.016 490.861 307.811 489.788 312.507 486.69C316.009 484.38 321.786 481.735 325.257 480.512C355.302 469.93 357.346 463.675 321.003 479.639C317.002 481.396 295.998 493.257 298.099 494.613L298.099 494.613ZM596.425 581.049C602.412 583.468 629.937 594.869 635.173 595.637C638.048 596.059 675.001 594.568 694.548 607.684C697.373 609.579 688.091 617.715 690.043 620.91C692.714 625.281 702.637 631.972 708.386 633.744L776.172 536.642C777.078 535.335 766.949 529.361 767.664 529.71C770.964 531.322 752.108 518.697 749.217 519.442C743.603 520.889 739.26 531.448 737.032 529.687C734.994 528.075 707.773 490.364 703.921 485.804C705.134 484.84 680.281 460.792 656.426 440.564C641.802 431.604 551.608 380.352 546.141 385.604C537.033 393.878 535.897 392.039 542.856 397.279C546.16 399.767 557.334 406.681 562.724 410.392C573.671 417.929 592.703 432.417 599.493 435.445C601.929 436.531 623.849 453.359 618.606 453.789C616.587 453.955 584.663 432.219 571.66 422.494C556.31 411.015 525.357 390.83 517.012 384.634C505.99 376.448 499.586 374.679 496.412 376.311C493.455 377.831 489.966 378.015 487.197 382.788C486.172 387.208 489.397 391.118 490.567 391.917C519.338 411.574 574.488 452.162 579.359 455.873C583.544 459.063 602.418 472.775 601.466 472.944C600.514 473.112 570.252 452.781 561.693 447.182C537.95 431.65 505.272 406.953 499.22 403.116C495.027 401.551 476.661 387.042 471.199 394.058C466.505 400.087 466.153 402.116 472.046 408.924C477.716 415.474 482.505 420.835 513.853 444.225C534.374 459.537 587.816 497.999 587.93 498.596C588.508 501.608 547.772 472.609 529.292 459.825C518.182 452.14 478.511 418.872 469.671 414.596C450.1 405.128 456.602 424.025 459.011 428.77C461.43 433.264 468.666 442.369 473.377 446.907C477.321 450.707 509.383 478.569 514.813 483.814C517.582 486.49 547.149 508.737 547.294 509.561C547.44 510.385 573.023 527.881 576.283 529.71C602.718 544.543 581.004 534.352 572.463 531.331C562.045 527.645 544.034 519.845 534.694 527.518C528.906 538.33 528.675 537.764 537.212 544.476C540.694 546.993 560.714 560.716 566.891 564.576C575.3 569.831 591.95 577.866 596.425 581.052L596.425 581.049ZM440.239 383.816C441.151 384.406 449.675 387.978 453.266 383.57C457.946 377.827 455.842 356.95 454.506 349.372C453.988 346.431 438.429 297.693 431.684 284.521C426.054 273.526 417.636 241.838 421.819 241.1C425.898 240.381 442.268 270.776 447.06 275.243C451.053 278.966 468.896 302.224 490.222 330.065C497.193 339.168 501.46 338.797 507.673 339.162C516.929 339.706 525.859 336.597 524.239 326.008C523.584 321.726 515.546 308.596 511.322 302.788C504.836 293.87 488.54 263.792 486.539 260.717C484.539 257.641 468.875 240.235 470.901 238.348C473.494 238.436 477.125 238.168 482.358 239.577C487.207 240.883 496.473 232.949 497.885 230.361C499.902 226.665 489.183 216.11 487.629 213.042C486.171 210.164 441.366 176.048 439.443 172.088C437.87 168.851 441.374 137.447 432.293 121.652C439.264 124.64 447.897 178.114 445.187 173.718C443.652 171.229 499.129 217.797 500.368 217.499C503.563 216.734 506.865 190.93 504.1 185.716C501.771 181.325 454.329 159.114 449.269 155.57C446.01 153.287 446.531 152.859 443.239 150.113C439.948 147.366 503.014 184.74 503.251 180.165C503.719 171.126 511.29 154.007 505.356 151.878C504.601 151.608 438.849 128.352 435.739 124.116C431.571 118.439 500.831 150.692 502.099 146.647C503.274 142.9 498.006 140.332 495.988 137.498C494.972 136.072 416.445 68.5612 407.599 71.717C402.871 73.4044 379.238 68.4606 376.798 66.2205C368.229 66.0316 377.889 57.7664 379.931 49.0305L370.547 38.5694L304.56 133.072C302.676 135.762 305.486 142.947 311.144 145.953C316.258 152.615 353.727 227.722 373.961 234.915C375.7 249.432 401.915 307.602 403.664 314.293C406.037 323.375 431.993 375.565 433.605 377.936C434.813 379.714 437.5 382.046 440.237 383.814L440.239 383.816Z" fill="#2788C7"/>
</g>
</g>
<defs>
<clipPath id="clip0">
<rect x="523.438" y="891.592" width="639" height="641" rx="319.5" transform="rotate(-145 523.438 891.592)" fill="white"/>
</clipPath>
<clipPath id="clip1">
<rect width="646.649" height="638.05" fill="white" transform="translate(527.058 892.709) rotate(-145)"/>
</clipPath>
</defs>
</svg>
