<svg width="892" height="892" viewBox="0 0 892 892" fill="none" xmlns="http://www.w3.org/2000/svg">
<g clip-path="url(#clip0)">
<rect x="526.508" y="909.001" width="664" height="666" rx="332" transform="rotate(-145 526.508 909.001)" fill="#014052"/>
<g clip-path="url(#clip1)">
<path d="M261.478 709.033L304.025 669.311C305.458 667.056 317.183 657.007 319.517 655.33C323.266 652.636 313.546 646.437 308.903 643.983C305.864 642.377 296.805 631.038 294.22 628.519C291.708 626.072 276.696 610.675 271.239 598.204C284.609 613.715 312.867 640.789 315.092 641.474C317.029 642.071 335.449 622.443 338.801 619.439C344.449 614.376 388.582 596.541 391.131 598.155C399.46 603.428 450.408 564.253 454.374 551.399C459.524 534.705 458.367 514.36 456.878 518.595C455.447 522.66 431.289 570.45 409.623 572.626C404.997 573.926 385.957 584.316 389.22 579.795C390.089 578.59 397.161 573.686 406.812 569.807C450.283 552.334 471.26 476.546 461.858 472.841C459.36 471.855 460.411 459.279 451.481 443.06C438.326 419.167 432.839 413.751 430.212 411.827C422.646 406.285 379.677 414.461 375.717 423.998C373.544 429.232 367.207 432.317 366.597 434.534C365.663 437.93 356.356 451.96 347.727 462.935C346.475 464.528 346.216 466.506 347.215 467.297C349.575 469.166 384.461 455.26 386.839 451.964C387.848 450.566 378.478 437.387 379.268 436.87C381.196 435.609 390.669 446.892 393.158 445.927C408.624 439.936 431.82 466.317 426.264 474.716C423.606 478.734 426.786 485.319 428.28 487.602C430.945 491.676 429.754 494.548 426.13 492.851C422.917 491.346 400.475 506.394 402.899 515.656C403.982 519.798 409.033 525.693 407.069 527.437C404.55 529.674 403.602 529.364 401.484 525.56C399.59 522.158 389.373 509.574 390.841 518.252C391.332 521.159 370.392 526.8 367.898 528.406C364.807 530.397 356.396 531.885 358.287 530.1C358.674 529.735 375.886 522.212 395.238 507.097C406.592 498.229 409.069 495.286 413.677 492.483C419.023 489.232 423.606 466.253 418.111 461.672C416.792 460.572 412.703 456.893 408.179 454.282L399.953 449.539L386.583 458.987C379.245 464.186 366.683 471.514 358.616 475.281C342.598 482.76 328.154 486.284 311.601 496.684C298.22 505.093 286.793 511.329 286.281 510.546C285.77 509.764 293.774 504.802 295.827 504.114C298.871 503.093 298.124 502.393 295.855 498.948C292.819 494.339 269.213 509.685 269.583 516.139C268.404 516.91 256.465 564.337 258.136 568.476C259.746 572.464 258.802 570.524 261.371 580.763C261.085 580.461 249.435 575.034 246.984 576.891C241.796 580.822 246.17 592.236 249.175 597.338C251.623 601.495 259.725 607.02 253.823 605.545C251.207 604.892 237.572 585.252 238.757 582.359C240.149 578.959 207.005 605.863 205.573 609.526C203.24 615.491 202.551 616.101 198.953 615.349C195.761 614.681 157.285 636.792 157.285 636.792L261.476 709.033L261.478 709.033ZM298.099 497.613C298.399 497.807 299.164 497.818 300.512 497.487C312.761 494.476 314.341 493.821 309.524 493.847C307.016 493.861 307.811 492.788 312.507 489.69C316.009 487.38 321.786 484.735 325.258 483.512C355.302 472.93 357.346 466.675 321.003 482.639C317.002 484.396 295.998 496.257 298.099 497.613L298.099 497.613ZM596.425 584.049C602.412 586.468 629.937 597.869 635.173 598.637C638.048 599.059 675.001 597.569 694.548 610.684C697.373 612.579 688.092 620.715 690.043 623.91C692.714 628.281 702.637 634.973 708.386 636.744L776.172 539.643C777.078 538.335 766.95 532.361 767.664 532.71C770.964 534.322 752.108 521.697 749.217 522.442C743.603 523.889 739.26 534.448 737.032 532.687C734.994 531.075 707.773 493.364 703.921 488.804C705.134 487.84 680.281 463.792 656.426 443.564C641.802 434.604 551.608 383.352 546.141 388.604C537.033 396.878 535.897 395.039 542.856 400.279C546.16 402.767 557.334 409.681 562.724 413.392C573.671 420.929 592.703 435.417 599.493 438.445C601.929 439.531 623.849 456.359 618.606 456.789C616.587 456.955 584.663 435.219 571.66 425.494C556.311 414.015 525.357 393.83 517.013 387.634C505.99 379.448 499.586 377.679 496.412 379.311C493.455 380.831 489.966 381.015 487.197 385.788C486.172 390.208 489.398 394.118 490.567 394.917C519.338 414.574 574.488 455.162 579.359 458.873C583.544 462.063 602.418 475.776 601.466 475.944C600.514 476.112 570.252 455.781 561.693 450.182C537.95 434.65 505.272 409.953 499.221 406.116C495.027 404.551 476.662 390.042 471.199 397.058C466.505 403.087 466.153 405.116 472.046 411.924C477.716 418.474 482.505 423.836 513.853 447.225C534.374 462.537 587.816 500.999 587.93 501.596C588.508 504.608 547.773 475.609 529.292 462.825C518.182 455.14 478.511 421.872 469.671 417.596C450.1 408.128 456.602 427.025 459.012 431.77C461.43 436.264 468.666 445.369 473.377 449.907C477.321 453.707 509.383 481.569 514.813 486.814C517.582 489.49 547.149 511.737 547.294 512.561C547.44 513.385 573.023 530.881 576.283 532.71C602.718 547.543 581.004 537.352 572.463 534.331C562.045 530.645 544.034 522.845 534.694 530.518C528.906 541.33 528.675 540.764 537.212 547.476C540.694 549.993 560.714 563.716 566.891 567.576C575.3 572.831 591.951 580.866 596.425 584.052L596.425 584.049ZM440.239 386.817C441.151 387.406 449.675 390.978 453.267 386.57C457.946 380.827 455.843 359.95 454.507 352.372C453.988 349.431 438.429 300.693 431.684 287.521C426.054 276.526 417.636 244.838 421.819 244.1C425.898 243.381 442.268 273.776 447.06 278.243C451.053 281.966 468.896 305.224 490.222 333.065C497.194 342.168 501.46 341.797 507.673 342.162C516.929 342.706 525.859 339.598 524.239 329.008C523.584 324.726 515.546 311.596 511.322 305.788C504.836 296.87 488.54 266.792 486.539 263.717C484.539 260.641 468.875 243.235 470.901 241.348C473.494 241.436 477.125 241.168 482.358 242.577C487.207 243.883 496.473 235.949 497.885 233.361C499.902 229.665 489.183 219.11 487.629 216.042C486.171 213.164 441.366 179.048 439.443 175.088C437.871 171.852 441.374 140.447 432.293 124.652C439.264 127.64 447.898 181.114 445.187 176.718C443.652 174.229 499.129 220.797 500.369 220.5C503.563 219.734 506.865 193.93 504.1 188.716C501.771 184.325 454.33 162.114 449.269 158.57C446.01 156.287 446.531 155.859 443.239 153.113C439.948 150.366 503.014 187.74 503.252 183.165C503.719 174.126 511.29 157.008 505.356 154.878C504.601 154.608 438.849 131.352 435.739 127.116C431.571 121.44 500.831 153.692 502.099 149.647C503.274 145.9 498.006 143.332 495.988 140.498C494.972 139.072 416.445 71.5612 407.599 74.7171C402.871 76.4045 379.238 71.4606 376.798 69.2206C368.229 69.0317 377.889 60.7664 379.931 52.0306L370.547 41.5694L304.56 136.072C302.676 138.762 305.486 145.947 311.144 148.953C316.258 155.615 353.727 230.722 373.961 237.915C375.7 252.432 401.915 310.602 403.664 317.293C406.037 326.375 431.993 378.565 433.605 380.936C434.813 382.714 437.501 385.046 440.237 386.814L440.239 386.817Z" fill="#299993"/>
</g>
<path d="M647.941 653.216L622.516 671.019L602.508 616.599L564.45 666.435L551.163 641.806" stroke="#299993" stroke-width="16"/>
<path d="M466.454 692.648L465.821 698.063C465.821 703.734 467.72 707.602 471.516 709.664C472.829 710.367 474.399 710.719 476.227 710.719C478.055 710.719 479.696 710.414 481.149 709.805C482.602 709.148 483.798 708.305 484.735 707.273C486.704 705.164 487.688 702.727 487.688 699.961C487.688 697.195 487.126 694.688 486.001 692.438C484.876 690.188 483.47 687.938 481.782 685.688L476.157 678.797C471.61 673.359 468.563 668.414 467.016 663.961C465.47 659.461 464.696 655.336 464.696 651.586C464.696 647.836 465.141 644.297 466.032 640.969C466.97 637.594 468.259 634.406 469.899 631.406C471.54 628.359 473.509 625.57 475.805 623.039C478.102 620.508 480.657 618.328 483.47 616.5C489.329 612.563 495.141 610.594 500.907 610.594C506.673 610.594 511.173 611.391 514.407 612.984C517.641 614.578 520.243 616.594 522.212 619.031C525.868 623.625 527.696 629.18 527.696 635.695C527.696 641.742 525.985 647.438 522.563 652.781C519.423 657.656 515.907 660.75 512.016 662.063C511.173 662.484 510.001 662.695 508.501 662.695C507.048 662.695 505.805 662.484 504.774 662.063C503.79 661.594 502.923 660.984 502.173 660.234C500.532 658.594 499.712 656.813 499.712 654.891C499.712 653.578 500.11 652.711 500.907 652.289C504.47 650.367 507.563 647.578 510.188 643.922C513.048 639.938 514.548 635.977 514.688 632.039C514.829 628.055 513.868 625.125 511.805 623.25C509.79 621.328 507.095 620.367 503.72 620.367C500.345 620.367 497.298 621.141 494.579 622.688C491.86 624.188 489.516 626.227 487.548 628.805C483.329 634.336 481.22 640.875 481.22 648.422C481.22 653.438 482.954 658.734 486.423 664.313C487.876 666.703 489.446 669.07 491.134 671.414C492.868 673.711 494.485 676.078 495.985 678.516C499.407 684.188 501.118 689.273 501.118 693.773C501.118 698.273 500.298 702.07 498.657 705.164C497.063 708.258 494.93 710.953 492.259 713.25C486.493 718.219 479.93 720.703 472.571 720.703C465.634 720.703 460.29 718.641 456.54 714.516C453.54 711.188 452.04 707.578 452.04 703.688C452.04 699.469 453.235 695.906 455.626 693C457.454 690.797 459.212 689.484 460.899 689.063C464.602 688.078 466.454 689.273 466.454 692.648Z" fill="#299993"/>
<path d="M427.352 699.88L401.927 717.683L381.919 663.264L343.861 713.099L330.575 688.471" stroke="#299993" stroke-width="16"/>
<path d="M722.499 461.601L695.237 446.763L735.054 404.616L673.485 392.73L689.621 369.867" stroke="#299993" stroke-width="16"/>
<path d="M616.568 374.073C613.099 379.276 609.677 383.518 606.302 386.799C602.974 390.034 599.74 391.651 596.599 391.651C595.005 391.651 593.81 391.276 593.013 390.526C591.654 389.307 590.974 388.159 590.974 387.081C590.974 386.003 591.326 385.206 592.029 384.69C599.107 379.581 606.958 364.581 615.583 339.69L619.732 327.878C624.513 314.378 628.568 306.01 631.896 302.776C633.068 301.885 634.286 301.44 635.552 301.44C636.818 301.44 637.919 301.651 638.857 302.073C639.794 302.448 640.615 302.94 641.318 303.549C642.911 304.956 643.708 306.596 643.708 308.471C643.708 309.174 643.38 310.182 642.724 311.495C642.068 312.807 641.318 314.518 640.474 316.628L631.544 341.448C642.935 339.385 652.333 334.674 659.74 327.315C666.677 320.424 670.146 313.346 670.146 306.081C670.146 299.19 667.052 294.667 660.865 292.51C658.755 291.76 656.294 291.385 653.482 291.385C650.716 291.385 647.88 291.737 644.974 292.44C642.068 293.143 639.208 294.057 636.396 295.182C630.724 297.479 626.083 300.174 622.474 303.268C621.536 304.159 620.505 304.604 619.38 304.604C618.255 304.604 617.201 304.37 616.216 303.901C615.232 303.432 614.365 302.823 613.615 302.073C611.88 300.432 611.013 298.768 611.013 297.081C611.013 295.346 611.622 293.799 612.841 292.44C614.06 291.081 615.677 289.862 617.693 288.784C619.708 287.659 622.029 286.674 624.654 285.831C627.279 284.94 629.974 284.19 632.74 283.581C638.365 282.409 643.943 281.823 649.474 281.823C655.052 281.823 660.138 282.526 664.732 283.932C669.372 285.292 673.193 287.143 676.193 289.487C682.24 294.174 685.263 300.128 685.263 307.346L685.263 308.471C684.841 317.331 681.49 325.135 675.208 331.885C669.724 337.745 662.646 342.362 653.974 345.737C646.146 348.831 638.74 350.378 631.755 350.378L629.927 350.378C629.318 350.378 628.732 350.331 628.169 350.237C623.951 360.878 620.083 368.823 616.568 374.073Z" fill="#299993"/>
<path d="M582.491 284.867L555.229 270.029L595.047 227.882L533.478 215.996L549.614 193.133" stroke="#299993" stroke-width="16"/>
<path d="M179.197 530.916L179.197 497.416L239.697 513.416L219.197 448.916L249.197 452.416" stroke="#299993" stroke-width="16"/>
<path d="M277.945 342.922C277.945 333.594 271.781 328.93 259.453 328.93C251.718 328.93 243.89 331.273 235.968 335.961C233.672 337.32 231.867 338.586 230.554 339.758C229.289 340.883 228.07 341.445 226.898 341.445C225.726 341.445 224.601 341.164 223.523 340.602C222.445 339.992 221.484 339.242 220.64 338.352C217.547 334.93 217.875 331.625 221.625 328.437C227.25 323.609 236.578 320.492 249.609 319.086C252.234 318.805 255.562 318.664 259.593 318.664C263.625 318.664 267.867 319.391 272.32 320.844C276.82 322.297 280.593 324.266 283.64 326.75C289.734 331.766 292.781 338.164 292.781 345.945C292.781 355.18 288.562 363.594 280.125 371.187C272.812 377.844 264.164 382.602 254.179 385.461C256.898 387.711 259.453 390.945 261.843 395.164L267.468 405.219C272.39 414.359 276.797 419.328 280.687 420.125C282.047 420.359 283.453 420.312 284.906 419.984C286.359 419.656 287.297 419.516 287.718 419.562C288.187 419.562 288.492 419.937 288.632 420.687C288.82 421.437 288.632 422.375 288.07 423.5C287.507 424.625 286.593 425.68 285.328 426.664C282.375 429.008 279.14 430.039 275.625 429.758C272.109 429.523 269.25 428.82 267.047 427.648C264.89 426.43 262.945 424.906 261.211 423.078C259.523 421.25 258 419.211 256.64 416.961C255.328 414.711 254.109 412.414 252.984 410.07L249.82 403.18C248.836 400.93 247.922 399.008 247.078 397.414C246.234 395.773 245.507 394.297 244.898 392.984C244.289 391.625 243.609 390.406 242.859 389.328C241.265 386.891 239.226 385.344 236.742 384.687C226.898 410 216.89 424.437 206.718 428C205.875 428.328 205.007 428.492 204.117 428.492C203.273 428.492 202.5 428.328 201.797 428C201.093 427.719 200.507 427.344 200.039 426.875C199.054 425.984 198.562 425 198.562 423.922C198.562 422.844 198.914 422.047 199.617 421.531C206.648 416.422 214.453 401.516 223.031 376.812L227.25 364.93C232.078 351.242 236.156 342.805 239.484 339.617C240.656 338.727 241.875 338.281 243.14 338.281C244.406 338.281 245.507 338.492 246.445 338.914C247.382 339.289 248.203 339.781 248.906 340.391C250.5 341.797 251.297 343.227 251.297 344.68C251.297 346.133 250.968 347.445 250.312 348.617C249.703 349.742 249 351.336 248.203 353.398C245.906 359.398 244.125 364.203 242.859 367.812L239.273 377.937C249.257 376.625 258.093 372.711 265.781 366.195C273.89 359.352 277.945 351.594 277.945 342.922Z" fill="#299993"/>
<path d="M274.5 307L274.5 273.5L335 289.5L314.5 225L344.5 228.5" stroke="#299993" stroke-width="16"/>
</g>
<rect x="526.508" y="909.001" width="664" height="666" rx="332" transform="rotate(-145 526.508 909.001)" stroke="#299993" stroke-width="25"/>
<defs>
<clipPath id="clip0">
</clipPath>
<clipPath id="clip1">
<rect width="646.649" height="638.05" fill="white" transform="translate(527.059 895.709) rotate(-145)"/>
</clipPath>
</defs>
</svg>
